<svg width="21" height="20" viewBox="0 0 21 20" fill="none" xmlns="http://www.w3.org/2000/svg">
<path d="M8.625 4.6875C8.625 4.87292 8.57002 5.05418 8.467 5.20835C8.36399 5.36252 8.21757 5.48268 8.04627 5.55364C7.87496 5.62459 7.68646 5.64316 7.5046 5.60699C7.32275 5.57081 7.1557 5.48153 7.02459 5.35041C6.89348 5.2193 6.80419 5.05226 6.76801 4.8704C6.73184 4.68854 6.75041 4.50004 6.82136 4.32873C6.89232 4.15743 7.01248 4.01101 7.16665 3.908C7.32082 3.80498 7.50208 3.75 7.6875 3.75C7.93614 3.75 8.1746 3.84877 8.35041 4.02459C8.52623 4.2004 8.625 4.43886 8.625 4.6875ZM13.3125 5.625C13.4979 5.625 13.6792 5.57002 13.8333 5.467C13.9875 5.36399 14.1077 5.21757 14.1786 5.04627C14.2496 4.87496 14.2682 4.68646 14.232 4.5046C14.1958 4.32275 14.1065 4.1557 13.9754 4.02459C13.8443 3.89348 13.6773 3.80419 13.4954 3.76801C13.3135 3.73184 13.125 3.75041 12.9537 3.82136C12.7824 3.89232 12.636 4.01248 12.533 4.16665C12.43 4.32082 12.375 4.50208 12.375 4.6875C12.375 4.93614 12.4738 5.1746 12.6496 5.35041C12.8254 5.52623 13.0639 5.625 13.3125 5.625ZM7.6875 9.0625C7.50208 9.0625 7.32082 9.11748 7.16665 9.2205C7.01248 9.32351 6.89232 9.46993 6.82136 9.64124C6.75041 9.81254 6.73184 10.001 6.76801 10.1829C6.80419 10.3648 6.89348 10.5318 7.02459 10.6629C7.1557 10.794 7.32275 10.8833 7.5046 10.9195C7.68646 10.9557 7.87496 10.9371 8.04627 10.8661C8.21757 10.7952 8.36399 10.675 8.467 10.5208C8.57002 10.3667 8.625 10.1854 8.625 10C8.625 9.75136 8.52623 9.5129 8.35041 9.33709C8.1746 9.16127 7.93614 9.0625 7.6875 9.0625ZM13.3125 9.0625C13.1271 9.0625 12.9458 9.11748 12.7917 9.2205C12.6375 9.32351 12.5173 9.46993 12.4464 9.64124C12.3754 9.81254 12.3568 10.001 12.393 10.1829C12.4292 10.3648 12.5185 10.5318 12.6496 10.6629C12.7807 10.794 12.9477 10.8833 13.1296 10.9195C13.3115 10.9557 13.5 10.9371 13.6713 10.8661C13.8426 10.7952 13.989 10.675 14.092 10.5208C14.195 10.3667 14.25 10.1854 14.25 10C14.25 9.75136 14.1512 9.5129 13.9754 9.33709C13.7996 9.16127 13.5611 9.0625 13.3125 9.0625ZM7.6875 14.375C7.50208 14.375 7.32082 14.43 7.16665 14.533C7.01248 14.636 6.89232 14.7824 6.82136 14.9537C6.75041 15.125 6.73184 15.3135 6.76801 15.4954C6.80419 15.6773 6.89348 15.8443 7.02459 15.9754C7.1557 16.1065 7.32275 16.1958 7.5046 16.232C7.68646 16.2682 7.87496 16.2496 8.04627 16.1786C8.21757 16.1077 8.36399 15.9875 8.467 15.8333C8.57002 15.6792 8.625 15.4979 8.625 15.3125C8.625 15.0639 8.52623 14.8254 8.35041 14.6496C8.1746 14.4738 7.93614 14.375 7.6875 14.375ZM13.3125 14.375C13.1271 14.375 12.9458 14.43 12.7917 14.533C12.6375 14.636 12.5173 14.7824 12.4464 14.9537C12.3754 15.125 12.3568 15.3135 12.393 15.4954C12.4292 15.6773 12.5185 15.8443 12.6496 15.9754C12.7807 16.1065 12.9477 16.1958 13.1296 16.232C13.3115 16.2682 13.5 16.2496 13.6713 16.1786C13.8426 16.1077 13.989 15.9875 14.092 15.8333C14.195 15.6792 14.25 15.4979 14.25 15.3125C14.25 15.0639 14.1512 14.8254 13.9754 14.6496C13.7996 14.4738 13.5611 14.375 13.3125 14.375Z" fill="#343330"/>
</svg>
